<?xml version="1.0" encoding="UTF-8"?>
<svg id="Layer_1" xmlns="http://www.w3.org/2000/svg" version="1.1" viewBox="0 0 300 300">
  <!-- Generator: Adobe Illustrator 30.2.1, SVG Export Plug-In . SVG Version: 2.1.1 Build 1)  -->
  <defs>
    <style>
      .st0 {
        fill: #e3c537;
      }
    </style>
  </defs>
  <path class="st0" d="M164.08,80.65l3.98,1.11c14.44,8.84,28.86,17.67,43.26,26.48l.69,1.75v60.94l-.68,1.75-44.98,27.75c-3.71.82-10.62,1.42-14.09-.03l-45.69-28.25c-.51-20.93-.52-42.63-.01-63.58l43.95-26.81,3.98-1.1h9.59ZM167.05,145.61c-4.42-.01-8.16-.25-12.38-.29l-38.52-.4.02,20.93,39.08,23.59c3.01.23,5.64.26,8.59-.03l38.57-23.69v-51.09s-38.41-22.59-38.41-22.59l-9.06-.13-38.18,22.67-.31,20.8,50.54-.06-16.31-16.72,12.6-.04,23.98,16.66-.04,9.84-24.3,16.86c-4.16-.2-7.86.43-12.13-.38,5.96-6.66,10.46-9.46,16.27-15.95Z"/>
</svg>